<?xml version="1.0" encoding="utf-8"?>
<!-- Generator: Adobe Illustrator 15.1.0, SVG Export Plug-In . SVG Version: 6.00 Build 0)  -->
<!DOCTYPE svg PUBLIC "-//W3C//DTD SVG 1.1//EN" "http://www.w3.org/Graphics/SVG/1.1/DTD/svg11.dtd">
<svg version="1.1" id="Layer_1" xmlns="http://www.w3.org/2000/svg" xmlns:xlink="http://www.w3.org/1999/xlink" x="0px" y="0px"
	 width="250px" height="250px" viewBox="0 0 250 250" enable-background="new 0 0 250 250" xml:space="preserve">
<g>
	<g>
		<g>
			<path fill="#355C7D" d="M44.662,198.756v2.876h-5.729v14.23h-3.577v-14.23h-5.754v-2.876H44.662z"/>
			<path fill="#355C7D" d="M48.654,215.863l6.246-17.107h4.278l6.246,17.107h-3.707l-1.425-4.173h-6.584l-1.399,4.173H48.654z
				 M56.248,204.173l-1.658,4.873h4.82l-1.606-4.821l-0.779-2.592h-0.052L56.248,204.173z"/>
			<path fill="#355C7D" d="M87.17,211.146c-0.518,1.677-1.424,2.925-2.721,3.745c-1.296,0.822-2.809,1.232-4.536,1.232
				c-1.694,0-3.158-0.354-4.394-1.063c-1.235-0.709-2.186-1.72-2.852-3.033c-0.665-1.313-0.997-2.885-0.997-4.718
				c0-1.831,0.337-3.403,1.011-4.716c0.673-1.313,1.624-2.324,2.85-3.033c1.227-0.708,2.67-1.063,4.33-1.063
				c1.745,0,3.244,0.367,4.497,1.102c1.253,0.734,2.113,1.845,2.58,3.33l-3.241,1.374c-0.294-1.037-0.743-1.775-1.347-2.216
				c-0.605-0.44-1.384-0.66-2.333-0.66c-1.417,0-2.545,0.505-3.383,1.516c-0.839,1.011-1.257,2.466-1.257,4.367
				c0,1.884,0.396,3.336,1.192,4.355c0.794,1.02,1.944,1.529,3.447,1.529c0.933,0,1.74-0.25,2.423-0.751
				c0.682-0.5,1.161-1.262,1.438-2.281L87.17,211.146z"/>
			<path fill="#355C7D" d="M98.99,198.756v8.113l7.024-8.113h4.147l-6.142,6.973l6.35,10.134h-4.095l-4.847-7.828l-2.437,2.773
				v5.055h-3.577v-17.107H98.99z"/>
			<path fill="#355C7D" d="M121.773,212.987h9.02v2.876h-12.597v-17.107h3.577V212.987z"/>
			<path fill="#355C7D" d="M138.958,215.863v-17.107h12.831v2.876h-9.253v4.252h7.284v2.747h-7.284v4.355h9.617v2.876H138.958z"/>
			<path fill="#355C7D" d="M160.549,215.863v-17.107h7.492c2.073,0,3.602,0.406,4.588,1.218c0.984,0.812,1.477,1.961,1.477,3.447
				c0,0.916-0.277,1.728-0.829,2.437c-0.554,0.708-1.366,1.158-2.437,1.348v0.026c1.192,0.172,2.108,0.622,2.748,1.347
				c0.639,0.727,0.959,1.59,0.959,2.592c0,1.469-0.531,2.618-1.594,3.447c-1.063,0.829-2.615,1.244-4.653,1.244H160.549z
				 M164.022,205.937h3.551c1.883,0,2.825-0.735,2.825-2.203c0-1.469-0.941-2.205-2.825-2.205h-3.551V205.937z M164.022,213.167
				h3.966c0.95,0,1.662-0.194,2.137-0.583c0.476-0.388,0.713-0.945,0.713-1.672c0-0.708-0.237-1.256-0.713-1.646
				c-0.476-0.388-1.187-0.583-2.137-0.583h-3.966V213.167z"/>
			<path fill="#355C7D" d="M190.539,198.497c1.692,0,3.153,0.354,4.38,1.063c1.227,0.709,2.172,1.72,2.838,3.033
				c0.665,1.313,0.997,2.885,0.997,4.716c0,1.833-0.333,3.405-0.997,4.718c-0.666,1.313-1.611,2.324-2.838,3.033
				c-1.227,0.708-2.688,1.063-4.38,1.063c-1.694,0-3.158-0.354-4.394-1.063c-1.236-0.709-2.186-1.72-2.852-3.033
				c-0.665-1.313-0.998-2.885-0.998-4.718c0-1.831,0.333-3.403,0.998-4.716c0.666-1.313,1.616-2.324,2.852-3.033
				C187.38,198.852,188.844,198.497,190.539,198.497z M190.539,201.426c-1.452,0-2.571,0.505-3.357,1.516
				c-0.786,1.011-1.179,2.466-1.179,4.367c0,1.902,0.393,3.357,1.179,4.368c0.786,1.011,1.905,1.516,3.357,1.516
				c1.433,0,2.544-0.505,3.33-1.516c0.786-1.011,1.18-2.466,1.18-4.368c0-1.9-0.394-3.356-1.18-4.367
				C193.083,201.932,191.972,201.426,190.539,201.426z"/>
			<path fill="#355C7D" d="M220.398,215.863h-4.25l-3.733-6.065l-3.681,6.065h-4.095l5.884-8.631l-5.47-8.476h4.2l3.447,5.754
				l3.499-5.754h3.887l-5.495,8.347L220.398,215.863z"/>
		</g>
	</g>
	<g>
		<path fill="#355C7D" d="M159.679,125.582c-1.595,0-2.89,1.287-2.89,2.886c0,1.594,1.295,2.889,2.89,2.889
			c1.598,0,2.893-1.295,2.893-2.889C162.571,126.869,161.276,125.582,159.679,125.582z"/>
		<path fill="#355C7D" d="M174.247,33.877H75.752c-5.644,0-10.219,4.575-10.219,10.22v98.495c0,5.645,4.575,10.22,10.219,10.22
			h98.495c5.645,0,10.22-4.575,10.22-10.22V44.097C184.467,38.453,179.892,33.877,174.247,33.877z M140.933,86.749
			c-0.974,2.188-1.476,4.55-1.476,6.947v20.328c0,14.36-11.641,26-25.999,26c-14.362,0-26.006-11.639-26.006-26V67.305
			c-2.466-0.875-4.406-2.817-5.28-5.286c-1.594-4.513,0.768-9.465,5.28-11.062c4.511-1.596,9.464,0.771,11.06,5.286
			c1.598,4.512-0.767,9.465-5.278,11.061v46.718c0,11.167,9.057,20.225,20.225,20.225c11.167,0,20.224-9.057,20.224-20.225v-12.316
			c0-1.018-0.83-1.849-1.854-1.849c-0.157,0-0.321,0.02-0.479,0.062l-6.336,1.7l16.758-16.757L140.933,86.749z M162.571,136.643
			c-4.512,1.591-9.465-0.771-11.06-5.286c-1.599-4.512,0.765-9.462,5.277-11.061V73.577c0-11.167-9.05-20.224-20.225-20.224
			c-11.167,0-20.225,9.057-20.225,20.224v12.316c0,1.018,0.832,1.849,1.855,1.849c0.156,0,0.322-0.02,0.479-0.062l6.339-1.7
			l-16.76,16.757l0.837-1.885c0.974-2.187,1.476-4.55,1.476-6.947V73.577c0-14.36,11.641-26,25.999-26
			c14.362,0,26.007,11.639,26.007,26v46.718c2.464,0.875,4.406,2.815,5.278,5.286C169.446,130.094,167.084,135.046,162.571,136.643z
			"/>
		<path fill="#355C7D" d="M90.343,56.244c-1.598,0-2.891,1.295-2.891,2.884c0,1.597,1.293,2.892,2.891,2.892
			c1.597,0,2.891-1.295,2.891-2.892C93.233,57.539,91.939,56.244,90.343,56.244z"/>
	</g>
</g>
</svg>
